PathFileType	4	(X/Y/Z)	s06c0402.trc
DataRate	CameraRate	NumFrames	NumMarkers	Units	OrigDataRate	OrigDataStartFrame	OrigNumFrames
200	200	4	48	mm	200	1000	2000
Frame#	Time	racr			lacr			c7			jug			rlel			rdr			llel			ldr			s2			lic			ric			lasi			rasi			rpsi			lpsi			rgt			lgt			rth1			rth2			rth3			rth4			rlfc			rmfc			rsh1			rsh2			rsh3			rsh4			rlmal			rcal			rtoe			rmt5			lth1			lth2			lth4			lth3			llfc			lmfc			llmal			lcal			lmt5			lsh1			lsh2			lsh3			lsh4			ltoe			SBIKE			LBIKE			RBIKE			
		X1	Y1	Z1	X2	Y2	Z2	X3	Y3	Z3	X4	Y4	Z4	X5	Y5	Z5	X6	Y6	Z6	X7	Y7	Z7	X8	Y8	Z8	X9	Y9	Z9	X10	Y10	Z10	X11	Y11	Z11	X12	Y12	Z12	X13	Y13	Z13	X14	Y14	Z14	X15	Y15	Z15	X16	Y16	Z16	X17	Y17	Z17	X18	Y18	Z18	X19	Y19	Z19	X20	Y20	Z20	X21	Y21	Z21	X22	Y22	Z22	X23	Y23	Z23	X24	Y24	Z24	X25	Y25	Z25	X26	Y26	Z26	X27	Y27	Z27	X28	Y28	Z28	X29	Y29	Z29	X30	Y30	Z30	X31	Y31	Z31	X32	Y32	Z32	X33	Y33	Z33	X34	Y34	Z34	X35	Y35	Z35	X36	Y36	Z36	X37	Y37	Z37	X38	Y38	Z38	X39	Y39	Z39	X40	Y40	Z40	X41	Y41	Z41	X42	Y42	Z42	X43	Y43	Z43	X44	Y44	Z44	X45	Y45	Z45	X46	Y46	Z46	X47	Y47	Z47	X48	Y48	Z48	
1000	5.0000	710.518141	1313.684563	-50.183208	738.607029	1284.835373	-380.191005	731.190450	1406.116823	-210.605161	707.831594	1246.261182	-203.762177	560.206267	1100.871833	61.157179	689.928984	944.345911	-48.971549	559.819586	1099.546243	-503.694848	670.556359	933.623381	-409.824884	182.224957	1208.386525	-208.158930	331.356981	1183.051833	-381.030342	340.028087	1138.173056	-54.556564	348.273923	1132.858514	-342.757710	355.267026	1091.080904	-96.913337	221.988367	1235.832862	-170.910975	218.571354	1245.412879	-231.194664	269.755471	1050.051620	-34.534864	309.662542	1142.349799	-407.678786	292.070634	924.179975	-20.527634	312.721097	835.957463	-26.622788	287.258748	753.539114	-35.034706	348.506472	837.165613	-39.859097	277.189194	647.152681	-48.220091	261.761425	624.385366	-163.487811	234.293259	533.202434	-23.707687	223.264645	448.921141	-42.336708	172.711690	377.167292	-45.458995	243.858096	444.173133	-76.930192	133.716367	306.752338	-54.108158	79.266056	330.084187	-103.561278	233.867866	100.394313	-95.701645	156.615582	165.689820	-30.295867	368.723579	1046.791412	-424.393683	449.070133	1013.044766	-419.315910	469.616779	1039.086897	-400.534013	503.182976	941.388917	-420.246333	556.987519	839.835435	-389.462037	553.931944	829.192550	-268.406535	268.106119	597.097305	-376.855485	186.735079	603.240390	-330.662805	334.413496	474.239833	-404.527422	480.042894	763.805883	-406.174368	428.469463	696.200213	-387.987875	348.015436	658.644467	-386.720538	448.214148	678.250865	-359.345232	412.052372	435.803282	-346.553550	-156.884484	856.079268	-222.948223	-49.065003	80.436127	-415.297186	-49.120759	80.309828	-17.940470	
1001	5.0050	709.372444	1313.934991	-50.103836	740.627337	1283.157656	-378.626807	731.956571	1405.686734	-210.108238	706.870337	1246.122797	-203.049908	559.577885	1101.109288	61.306493	689.734792	944.313568	-48.751272	560.167072	1099.683931	-503.182869	670.438534	933.833254	-409.626198	181.268781	1210.954434	-209.168297	330.292773	1184.676812	-381.374247	339.182784	1140.746573	-54.651136	347.053360	1134.685375	-343.116023	354.736212	1093.899279	-97.155874	221.518908	1238.604592	-171.667657	218.188308	1248.148827	-231.781998	269.712515	1052.414723	-34.809000	308.600073	1145.033911	-407.321790	294.718388	925.642503	-21.406130	316.415965	837.564599	-29.336839	293.646051	755.127772	-36.056620	352.387774	839.877478	-42.323745	283.874650	648.175896	-49.487404	265.512289	626.643312	-164.237384	236.700182	535.527575	-24.262453	222.132479	451.771682	-43.146795	168.801100	382.182933	-45.249816	241.940801	446.462702	-78.075778	127.422371	312.549181	-53.302692	72.010035	337.266816	-101.124787	224.018217	105.295398	-96.743017	148.111534	171.048881	-30.409691	366.139444	1049.267410	-425.280261	446.246816	1014.870763	-420.120760	466.983517	1040.692689	-401.258507	499.853916	942.810957	-421.322298	553.706363	840.162756	-391.190411	551.823010	828.532297	-270.332723	271.186367	589.243577	-376.522741	189.454319	592.717118	-329.651387	341.648785	469.810423	-405.064221	477.710649	762.435107	-407.271742	428.353536	693.166036	-389.104589	348.914198	653.484655	-386.948526	448.887389	675.658416	-360.850843	421.171118	434.376258	-347.599441	-156.953879	856.136152	-222.887243	-49.084708	80.453198	-415.283059	-49.119101	80.308911	-17.938291	
1002	5.0100	708.029963	1314.175859	-50.003821	742.275622	1281.323139	-376.861216	732.751554	1405.209117	-209.444686	705.796221	1245.935717	-202.165584	558.798268	1101.310513	61.372866	689.457612	944.310321	-48.471700	560.519605	1099.820444	-502.568665	670.321272	933.928680	-409.287657	180.799418	1213.615010	-210.029692	329.242855	1186.178654	-381.727133	337.663226	1143.216566	-54.819803	345.895346	1136.361839	-344.012149	354.151311	1096.666060	-97.223398	220.904162	1241.161337	-172.560507	217.778117	1250.886929	-232.605547	269.552360	1054.750535	-35.138980	307.217674	1147.157531	-407.276621	297.714145	927.272257	-21.888995	321.767812	839.818984	-30.308241	300.282132	756.472683	-38.235368	357.032562	842.637521	-44.163651	290.528252	648.770410	-50.875898	270.244329	628.424774	-164.460334	239.315303	538.397149	-24.628091	220.656832	455.060079	-44.858270	165.988785	387.205177	-45.161692	240.701217	448.979989	-79.038682	121.934101	318.929627	-52.318652	66.187979	344.487202	-99.832107	214.342635	110.526906	-97.771300	139.943196	176.988722	-30.453340	363.326613	1050.765806	-425.672596	443.599514	1015.655541	-420.005988	464.368092	1041.359881	-401.836630	496.238651	943.407745	-422.751914	549.726271	839.375773	-391.965080	549.394599	827.338074	-272.286747	273.949220	580.936602	-376.348712	192.393237	581.689739	-328.525744	348.333582	464.362932	-405.456033	475.149129	759.835046	-408.781735	427.848791	689.109912	-390.273581	349.628055	647.379573	-387.276095	449.316045	672.160580	-362.349450	429.819132	432.317175	-349.006428	-156.965264	856.124169	-223.041818	-49.117336	80.460113	-415.270640	-49.158162	80.360881	-17.904139	
1003	5.0150	706.588132	1314.524416	-49.681872	744.064660	1279.543310	-375.034597	733.458730	1404.645988	-208.726312	704.566810	1245.647834	-201.241995	557.763554	1101.544785	61.496788	689.089277	944.411868	-48.070477	560.804794	1099.977429	-501.921392	670.127654	934.030709	-408.941977	180.320259	1216.236609	-210.967933	328.125190	1187.408994	-381.996328	336.983157	1145.718749	-54.821229	344.519225	1137.714945	-344.223992	353.455995	1099.559368	-97.321250	220.588110	1243.872773	-173.340715	217.440944	1253.292205	-233.594084	269.315321	1057.011956	-35.449456	305.455401	1148.535707	-407.288626	300.873801	928.601512	-22.996748	326.778726	841.964881	-32.094235	307.874216	758.339685	-38.876503	361.761419	845.593255	-46.081686	297.649581	649.653906	-52.473776	275.133669	630.393414	-164.355366	242.435817	541.680495	-24.900641	220.694770	459.037179	-45.143252	163.707358	393.395856	-44.572221	240.060941	452.377110	-79.640313	117.091443	325.821298	-51.240549	60.892665	352.432553	-98.543469	205.144409	116.171800	-98.263731	132.044432	183.325273	-30.355332	360.583854	1051.893936	-426.543620	440.489867	1015.939214	-421.191925	461.469577	1041.455404	-403.246181	492.131033	943.288492	-425.228910	545.135105	838.190294	-393.893094	546.988990	825.061530	-274.593199	276.787408	571.982570	-376.115874	195.386405	569.972120	-327.265249	354.829190	458.431569	-405.934863	472.221596	756.600516	-411.067687	427.089299	684.162366	-391.198888	350.198317	640.428132	-387.571506	449.066775	667.827650	-362.720148	437.923039	429.259252	-350.080650	-157.041850	856.202074	-223.015037	-49.134827	80.402872	-415.208585	-49.168307	80.352659	-17.940472	
